<?xml version="1.0" encoding="UTF-8"?>
<svg width="279px" height="81px" viewBox="0 0 279 81" version="1.1" xmlns="http://www.w3.org/2000/svg" xmlns:xlink="http://www.w3.org/1999/xlink">
    <title>logo</title>
    <g id="Page-1" stroke="none" stroke-width="1" fill="none" fill-rule="evenodd">
        <g id="Desktop-HD" transform="translate(-553.000000, -496.000000)" fill="#FFFFFF" fill-rule="nonzero">
            <path d="M573.32,557.32 C581.35,557.32 586.41,554.46 589.93,549.84 L589.93,552.92 C589.93,554.9 591.14,556 593.23,556 L599.83,556 C601.92,556 603.13,554.79 603.13,552.7 L603.13,515.74 C603.13,502.21 593.56,496.6 579.92,496.6 C572,496.6 564.3,498.69 558.36,501.88 C556.49,502.87 556.16,504.52 557.04,506.39 L559.13,510.68 C560.12,512.66 561.66,512.99 563.64,512 C568.48,509.58 574.2,508.26 578.82,508.26 C583.55,508.26 589.16,509.58 589.16,514.42 C589.16,519.92 582.01,520.47 573.65,521.68 C565.84,522.78 553.19,525.2 553.19,539.39 C553.19,550.83 561.44,557.32 573.32,557.32 Z M576.18,546.32 C570.79,546.32 567.05,543.9 567.05,538.73 C567.05,533.12 571.45,531.8 576.51,530.81 C581.68,529.93 586.52,529.27 589.16,527.29 L589.16,533.89 C589.16,542.58 582.89,546.32 576.18,546.32 Z M641.71,556 C643.58,556 644.79,555.23 645.45,553.36 L665.03,501.77 C665.91,499.46 664.81,497.92 662.39,497.92 L654.03,497.92 C652.16,497.92 650.84,498.8 650.29,500.67 L637.42,539.83 L624.44,500.67 C623.89,498.91 622.57,497.92 620.7,497.92 L612.01,497.92 C609.59,497.92 608.49,499.46 609.37,501.77 L629.06,553.36 C629.72,555.23 630.93,556 632.8,556 L641.71,556 Z M697.45,557.32 C706.58,557.32 714.17,554.35 720,548.63 C721.54,547.09 721.32,545.55 719.78,544.01 L715.71,540.05 C714.17,538.51 712.63,538.73 711.09,540.16 C707.57,543.24 703.17,544.89 698.22,544.89 C689.53,544.89 682.93,539.83 682.82,530.26 L720.66,530.26 C722.75,530.26 723.96,529.16 724.07,527.07 C724.18,526.52 724.18,525.86 724.18,525.09 C724.18,508.59 713.84,496.6 696.57,496.6 C678.42,496.6 667.86,509.91 667.86,527.18 C667.86,544.45 678.53,557.32 697.45,557.32 Z M710.32,520.47 L682.93,520.47 C683.59,512.66 688.87,507.38 696.79,507.38 C703.94,507.38 709.66,511.67 710.32,520.47 Z M744.61,556 C746.7,556 747.91,554.79 747.91,552.7 L747.91,528.83 C747.91,515.96 754.18,509.8 762.1,509.8 C763.2,509.8 764.52,509.91 765.62,510.13 C767.82,510.57 769.14,510.02 769.58,507.93 L770.79,501.66 C771.12,499.68 770.57,498.14 768.7,497.59 C767.27,497.15 765.51,496.82 763.75,496.82 C757.26,496.82 751.32,500.34 747.91,505.62 L747.91,501.22 C747.91,499.13 746.7,497.92 744.61,497.92 L737.24,497.92 C735.15,497.92 733.94,499.13 733.94,501.22 L733.94,552.7 C733.94,554.79 735.15,556 737.24,556 L744.61,556 Z M789.35,576.24 C799.03,576.24 804.42,572.17 810.25,556.77 L831.15,501.77 C832.03,499.46 830.93,497.92 828.51,497.92 L820.48,497.92 C818.61,497.92 817.4,498.8 816.74,500.56 L803.76,538.29 L790.67,500.56 C790.01,498.8 788.8,497.92 786.93,497.92 L778.13,497.92 C775.71,497.92 774.72,499.46 775.6,501.77 L796.5,555.12 C793.86,562.16 791.77,564.58 787.59,564.58 C786.93,564.58 786.16,564.58 785.5,564.36 C784.18,564.03 783.19,564.69 782.64,566.67 L781.32,571.62 C780.77,573.71 781.43,575.25 783.41,575.69 C784.95,576.02 786.93,576.24 789.35,576.24 Z" id="logo"></path>
        </g>
    </g>
</svg>